<svg width="24" height="28" viewBox="0 0 24 28" fill="none" xmlns="http://www.w3.org/2000/svg">
<path d="M9.192 28C8.928 28 8.688 27.88 8.52 27.688C7.656 26.704 0 17.992 0 13.192C0 8.128 4.128 4 9.192 4C14.256 4 18.384 8.128 18.384 13.192C18.384 17.968 10.728 26.704 9.864 27.688C9.696 27.88 9.456 28 9.192 28ZM9.192 5.824C5.136 5.824 1.824 9.136 1.824 13.192C1.824 16.36 6.648 22.672 9.192 25.696C11.736 22.696 16.56 16.36 16.56 13.192C16.56 9.136 13.248 5.824 9.192 5.824Z" fill="url(#paint0_linear_285_1125)"/>
<path d="M9.19199 17.9201C6.64798 17.9201 4.58398 15.8561 4.58398 13.3121C4.58398 10.7681 6.64798 8.7041 9.19199 8.7041C11.736 8.7041 13.8 10.7681 13.8 13.3121C13.8 15.8561 11.736 17.9201 9.19199 17.9201ZM9.19199 10.5281C7.65599 10.5281 6.40799 11.7761 6.40799 13.3121C6.40799 14.8481 7.65599 16.0961 9.19199 16.0961C10.728 16.0961 11.976 14.8481 11.976 13.3121C11.976 11.7761 10.728 10.5281 9.19199 10.5281Z" fill="url(#paint1_linear_285_1125)"/>
<defs>
<linearGradient id="paint0_linear_285_1125" x1="9.192" y1="4" x2="9.192" y2="28" gradientUnits="userSpaceOnUse">
<stop stop-color="#699861"/>
<stop offset="1" stop-color="#699861"/>
</linearGradient>
<linearGradient id="paint1_linear_285_1125" x1="9.19199" y1="8.7041" x2="9.19199" y2="17.9201" gradientUnits="userSpaceOnUse">
<stop stop-color="#699861"/>
<stop offset="1" stop-color="#699861"/>
</linearGradient>
</defs>
</svg>
