<svg width="26" height="26" viewBox="0 0 26 26" fill="none" xmlns="http://www.w3.org/2000/svg">
<path fill-rule="evenodd" clip-rule="evenodd" d="M2.6268 6.39187L2.76036 6.24162C3.24986 5.72974 3.97911 5.47363 4.94744 5.47363H21.5426C22.4551 5.47363 23.1563 5.69635 23.6462 6.14144L23.6629 6.15814C23.763 6.24729 23.8635 6.35281 23.9634 6.47535C23.9634 6.4867 23.9691 6.49772 23.9801 6.50874L23.9968 6.52544C24.3644 6.98189 24.5477 7.62733 24.5477 8.46209V17.9116C24.5367 19.9151 23.535 20.9168 21.5426 20.9168H4.94744C2.95503 20.9058 1.95898 19.904 1.95898 17.9116V8.46209C1.95898 7.56054 2.1817 6.87036 2.6268 6.39187ZM22.0935 7.10977C21.9266 7.06536 21.7429 7.04833 21.5429 7.05969H4.94744C4.8249 7.04867 4.70803 7.05401 4.59684 7.07638L13.1949 15.7913L22.0935 7.10977ZM3.54504 8.27844C3.53402 8.3342 3.53402 8.39531 3.54504 8.46209V17.9116C3.54504 18.8579 4.01251 19.3307 4.94744 19.3307H21.5426C22.4885 19.3307 22.9617 18.8579 22.9617 17.9116V8.47879L13.7459 17.4775C13.5789 17.6335 13.3899 17.7113 13.1786 17.7113C12.9558 17.7003 12.7665 17.6221 12.6109 17.4775L3.54504 8.27844Z" fill="url(#paint0_linear_285_1138)"/>
<path fill-rule="evenodd" clip-rule="evenodd" d="M2.62695 6.39147C2.64932 6.35808 2.67704 6.32469 2.71043 6.2913C2.72178 6.26892 2.73814 6.25223 2.76051 6.24121L2.62695 6.39147Z" fill="url(#paint1_linear_285_1138)"/>
<defs>
<linearGradient id="paint0_linear_285_1138" x1="13.2533" y1="5.47363" x2="13.2533" y2="20.9168" gradientUnits="userSpaceOnUse">
<stop stop-color="#699861"/>
<stop offset="1" stop-color="#699861"/>
</linearGradient>
<linearGradient id="paint1_linear_285_1138" x1="2.69373" y1="6.24121" x2="2.69373" y2="6.39147" gradientUnits="userSpaceOnUse">
<stop stop-color="#699861"/>
<stop offset="1" stop-color="#699861"/>
</linearGradient>
</defs>
</svg>
