<svg width="23" height="23" viewBox="0 0 23 23" fill="none" xmlns="http://www.w3.org/2000/svg">
<path d="M18.7614 12.9656C18.2364 12.4195 17.6013 12.1312 16.9239 12.1312C16.2536 12.1312 15.6138 12.4148 15.077 12.9539L13.7435 14.2875C13.7106 14.2711 13.6778 14.2547 13.6474 14.2383L13.5794 14.2055C13.4364 14.1328 13.2724 14.0508 13.1364 13.9664C11.7677 13.0969 10.5184 11.9578 9.31376 10.4813C8.79814 9.83203 8.4372 9.28125 8.17236 8.73281C8.50751 8.41641 8.81923 8.1 9.1122 7.8C9.17782 7.73437 9.24345 7.66641 9.31142 7.59844C9.37704 7.53047 9.44501 7.4625 9.51298 7.39453C10.0708 6.83672 10.3661 6.18984 10.3638 5.52422C10.3638 4.86094 10.0684 4.21641 9.51298 3.66328L8.21689 2.36719C8.14189 2.29219 8.06689 2.21719 7.99423 2.14219C7.92157 2.06719 7.84657 1.99219 7.77392 1.91953L7.67079 1.81406C7.41532 1.55391 7.15048 1.28438 6.88329 1.03828C6.36298 0.520313 5.73251 0.246094 5.06454 0.246094C4.39892 0.246094 3.76376 0.520313 3.22235 1.03828C3.22001 1.04063 3.21767 1.04062 3.21767 1.04297L1.59345 2.66484C0.930167 3.32812 0.552823 4.13672 0.470792 5.06719V5.06953C0.384073 6.17109 0.583292 7.33359 1.09892 8.72812C1.87939 10.8375 3.05126 12.7922 4.78329 14.8781C6.89736 17.3977 9.43564 19.3852 12.3255 20.7844H12.3278C13.4411 21.3164 14.9364 21.9398 16.6239 22.05C16.6263 22.05 16.6286 22.05 16.6309 22.05H16.6427C16.7388 22.0547 16.8395 22.0594 16.945 22.0594C18.1286 22.0594 19.127 21.6305 19.9099 20.7844L19.9216 20.7727C19.931 20.7633 19.938 20.7563 19.945 20.7469C20.1794 20.4656 20.4489 20.2055 20.7513 19.9148C20.9599 19.7156 21.1731 19.5117 21.3794 19.2914C21.9114 18.7359 22.1927 18.0891 22.1903 17.4211C22.188 16.7508 21.902 16.1109 21.363 15.5719L18.7614 12.9656ZM18.5036 19.4977C18.0864 19.943 17.6083 20.1422 16.9567 20.1422C16.8958 20.1422 16.8278 20.1375 16.7575 20.1328C15.4075 20.0461 14.1302 19.5117 13.1692 19.0547C10.5161 17.7773 8.1911 15.9586 6.25751 13.6477C4.67548 11.7422 3.60907 9.96562 2.9036 8.0625C2.48173 6.93047 2.32235 6.05391 2.38798 5.22656C2.43017 4.74375 2.61064 4.35938 2.95517 4.01953L4.56767 2.40703C4.73642 2.24531 4.90985 2.15859 5.07157 2.15859C5.22392 2.15859 5.38564 2.24297 5.55673 2.40938C5.55907 2.41172 5.56142 2.41406 5.56376 2.41641C5.84267 2.67891 6.11454 2.95547 6.40282 3.24609L6.4122 3.25547C6.55048 3.39844 6.70986 3.5625 6.87157 3.71953L8.16532 5.01328C8.54267 5.39062 8.54267 5.65547 8.16532 6.03281C8.02939 6.16875 7.8911 6.30703 7.75517 6.44766L7.65907 6.54609C7.29579 6.91406 6.9536 7.26094 6.58095 7.59141C6.57626 7.59609 6.56923 7.60078 6.56454 7.60781L6.54111 7.63125C6.14501 8.02734 6.0372 8.50078 6.22235 9.03516C6.22704 9.04922 6.23173 9.06094 6.23642 9.07266C6.23876 9.07969 6.24111 9.08672 6.24579 9.09375C6.59267 9.93047 7.08017 10.725 7.83017 11.6742C7.83017 11.6766 7.83251 11.6766 7.83251 11.6789C9.16376 13.3172 10.5677 14.5969 12.1263 15.5859C12.3302 15.7148 12.5411 15.8227 12.738 15.9211C12.8833 15.9937 13.0474 16.0781 13.1833 16.1602C13.1927 16.1672 13.202 16.1719 13.2114 16.1766L13.2184 16.1813C13.2325 16.1883 13.2466 16.1977 13.263 16.2047C13.4669 16.3078 13.6684 16.357 13.877 16.357C14.2333 16.357 14.5614 16.2094 14.8263 15.9305L16.4481 14.3086C16.5653 14.1914 16.7481 14.0508 16.9403 14.0508C17.1184 14.0508 17.2919 14.1891 17.4044 14.3063C17.4067 14.3086 17.4067 14.3086 17.4091 14.3109L20.027 16.9289C20.2849 17.1867 20.4606 17.4914 20.0059 17.9695L20.0036 17.9719C19.8606 18.1266 19.7083 18.2742 19.5466 18.4313C19.5114 18.4641 19.4763 18.4992 19.4411 18.5344C19.113 18.8414 18.7989 19.1461 18.5036 19.4977Z" fill="url(#paint0_linear_285_1134)"/>
<defs>
<linearGradient id="paint0_linear_285_1134" x1="11.3208" y1="0.246094" x2="11.3208" y2="22.0594" gradientUnits="userSpaceOnUse">
<stop stop-color="#699861"/>
<stop offset="1" stop-color="#699861"/>
</linearGradient>
</defs>
</svg>
